<svg width="37" height="32" viewBox="0 0 37 32" fill="none" xmlns="http://www.w3.org/2000/svg">
<g clip-path="url(#clip0_331_45)">
<rect width="37" height="32" fill="#1B1B1B"/>
<path d="M23.2235 23.9901C22.8281 18.904 19.5991 14.6975 15.2338 13.1676C17.0626 11.8902 18.2769 9.68309 18.2769 7.16423C18.2785 3.20859 15.2953 0 11.6177 0C7.93848 0 4.95523 3.20859 4.95523 7.16423C4.95523 9.68309 6.16946 11.8902 7.99827 13.1694C3.63303 14.6975 0.40561 18.904 0.00861914 23.9901C0.00363599 24.0868 -0.00799137 24.1423 0.00861914 24.2749C0.0418402 24.7228 0.408932 25.0811 0.825856 25.0811C1.29095 25.0811 1.65804 24.6708 1.65804 24.1853C2.09158 18.6496 6.38872 14.3338 11.6177 14.3338C16.845 14.3338 21.1422 18.6496 21.5757 24.1853C21.5757 24.6708 21.9428 25.0811 22.4079 25.0811C22.8248 25.0811 23.1919 24.7228 23.2235 24.2749C23.2401 24.1423 23.2301 24.085 23.2235 23.9901ZM6.62126 7.16423C6.62126 4.1975 8.8587 1.79151 11.6177 1.79151C14.3767 1.79151 16.6125 4.1975 16.6125 7.16423C16.6125 10.1328 14.3767 12.5387 11.6177 12.5387C8.8587 12.5387 6.62126 10.1328 6.62126 7.16423Z" fill="white"/>
<path d="M36.9909 23.9901C36.5956 18.904 33.3665 14.6975 29.0013 13.1676C30.8301 11.8902 32.0443 9.68309 32.0443 7.16423C32.046 3.20859 29.0627 0 25.3852 0C21.7059 0 18.7227 3.20859 18.7227 7.16423C18.7227 9.68309 19.9369 11.8902 21.7657 13.1694C17.4005 14.6975 14.1731 18.904 13.7761 23.9901C13.7711 24.0868 13.7595 24.1423 13.7761 24.2749C13.8093 24.7228 14.1764 25.0811 14.5933 25.0811C15.0584 25.0811 15.4255 24.6708 15.4255 24.1853C15.859 18.6496 20.1562 14.3338 25.3852 14.3338C30.6125 14.3338 34.9096 18.6496 35.3432 24.1853C35.3432 24.6708 35.7103 25.0811 36.1753 25.0811C36.5923 25.0811 36.9594 24.7228 36.9909 24.2749C37.0075 24.1423 36.9976 24.085 36.9909 23.9901ZM20.3887 7.16423C20.3887 4.1975 22.6262 1.79151 25.3852 1.79151C28.1442 1.79151 30.3799 4.1975 30.3799 7.16423C30.3799 10.1328 28.1442 12.5387 25.3852 12.5387C22.6262 12.5387 20.3887 10.1328 20.3887 7.16423Z" fill="white"/>
<path d="M9.55003 30.2348C9.28754 30.2348 9.62296 30.4841 9.4571 30.5317C9.17582 30.6125 9.08691 30.4814 9.1949 30.2282C9.39134 29.7675 9.50375 29.2672 9.66951 28.7937C9.79678 28.4302 10.0623 28.1473 10.2537 27.8196C10.624 27.1855 10.8913 26.4342 11.3423 25.8514C11.5132 25.6305 11.681 25.4114 11.8534 25.1909C12.0346 24.9591 12.3219 24.8394 12.5371 24.6471C13.4916 23.7944 14.6588 23.1289 15.8229 22.6089C16.368 22.3654 17.0669 22.4555 17.6483 22.3387C18.2461 22.2185 19.032 22.1005 19.643 22.2186C20.7004 22.4229 21.673 22.7283 22.6301 23.2093C22.7818 23.2856 23.0175 23.3466 23.1379 23.4495C23.2481 23.5437 23.3943 23.5833 23.5262 23.633C23.6448 23.6777 23.6903 23.8083 23.815 23.8565C24.1995 24.0051 24.3342 24.4551 24.6646 24.6505C24.8581 24.7648 24.9638 24.9696 25.1127 25.1308C25.3188 25.3539 25.5782 25.5292 25.7699 25.7647C26.1023 26.1731 26.2996 26.5931 26.4868 27.0824C26.6322 27.4625 26.7939 27.9641 26.8153 28.3734C26.8243 28.5438 26.9362 28.7978 26.9813 28.9739C27.0391 29.1997 27.0765 29.3743 27.1871 29.5743C27.2516 29.6911 27.4128 29.7694 27.4128 29.9046C27.4128 30.0458 27.4128 30.187 27.4128 30.3282C27.4128 30.5237 27.3976 30.593 27.519 30.7286C27.6477 30.8724 26.8681 30.8353 26.8021 30.8353C25.9192 30.8353 25.0364 30.8353 24.1535 30.8353C22.8454 30.8353 21.5349 30.5951 20.2205 30.5951C18.7746 30.5951 17.3286 30.5951 15.8826 30.5951C14.638 30.5951 13.3408 30.8041 12.1056 30.9421C11.5971 30.9989 11.0767 30.9721 10.5656 31.0188C10.1946 31.0527 9.83483 31.0755 9.46042 31.0755C9.32994 31.0755 9.05244 31.2278 8.92938 31.1289C8.85262 31.0671 9.36165 30.6931 9.39736 30.6685C9.77356 30.4093 10.2155 30.2412 10.6519 30.1181C11.4221 29.9008 12.1626 29.6284 12.942 29.4409C13.5109 29.304 14.016 29.0328 14.5119 28.727C15.1038 28.3619 15.8461 27.9415 16.2145 27.3259C16.3682 27.0692 16.5346 26.6925 16.407 26.3918C16.2321 25.9795 15.3336 26.0983 14.9898 26.0983C14.5311 26.0983 13.8916 26.1154 13.5062 26.4185C13.1676 26.6849 13.777 26.5369 13.8979 26.4552C14.5297 26.0284 15.1269 25.4568 15.6636 24.9173C15.7932 24.7871 16.3213 24.263 15.7963 24.3769C15.2758 24.4899 14.8027 24.8216 14.5849 25.3177C14.3476 25.8584 14.5066 26.4722 15.1193 26.6387C16.0857 26.9014 17.299 26.6739 18.1429 26.155C18.5278 25.9183 18.9662 25.4004 18.2258 25.3377C17.1399 25.2457 15.9571 25.7506 15.1458 26.4519C14.6577 26.8738 14.1466 27.8029 15.0794 28.0465C16.187 28.3357 17.4604 27.8288 18.4582 27.3926C18.6346 27.3155 20.2385 26.5702 19.6198 26.1383C19.1569 25.8152 18.2296 26.2747 17.967 26.6854C17.4261 27.5311 18.3029 27.987 19.0489 27.9764C19.9756 27.9632 22.1143 26.9809 22.6301 26.0983C23.1495 25.2095 20.985 25.2031 20.6055 25.321C19.1899 25.7608 20.8903 27.6445 21.3656 27.8129C22.0035 28.0391 22.7043 28.1502 23.3802 28.1299C23.6799 28.1208 24.4477 28.0808 24.5219 27.6495C24.5964 27.2169 23.8842 27.0098 23.5793 27.1324C22.9899 27.3694 23.5217 28.1117 23.8548 28.2866C24.1074 28.4193 26.0597 29.0102 25.8893 28.2066C25.7718 27.6521 24.7286 27.0511 24.1933 27.0457C23.749 27.0412 24.029 27.9365 24.3327 28.0465C24.5168 28.1131 24.8373 28.0731 24.4257 28.0731" stroke="#1B1B1B" stroke-width="3" stroke-linecap="round"/>
<path d="M18.9892 12.9413C18.5685 13.2282 17.4417 13.9362 17.5355 14.5492C17.6411 15.239 20.266 15.5236 20.3533 14.9529C20.414 14.5566 18.2259 14.3125 18.2259 15.133C17.5554 16.4707 19.3679 16.6608 19.6497 16.5308C20.1165 16.3153 19.7541 14.5821 19.7659 14.0955C19.7889 13.1474 17.4541 14.1233 17.4293 14.8361C17.4085 15.4356 18.3934 14.7881 18.5279 14.6626C19.0551 14.1711 19.0829 13.0011 18.4881 12.4576C17.5816 11.6293 16.9182 12.6875 16.9182 13.5684M16.9182 13.5684C16.9182 13.7335 17.1915 14.2368 17.197 13.9621C17.2018 13.7206 17.2447 13.4986 16.9182 13.5684ZM16.9182 13.5684C16.5047 13.6569 16.2365 13.9522 16.0387 14.3057C16.0076 14.3612 16.0639 13.863 16.0619 13.7686C16.0512 13.2538 15.5821 12.7447 15.199 13.2348C15.1164 13.3404 14.8671 13.239 14.8671 13.3816C14.8671 13.5049 14.832 12.9225 14.9135 13.0147C14.9804 13.0903 14.8671 13.7164 14.8671 13.842C14.8671 14.0603 14.8381 14.2336 14.9534 14.4158C15.2495 14.8835 15.3068 15.5742 15.6902 15.9903C15.985 16.3104 16.0804 16.8372 16.3341 17.208C16.5783 17.5651 16.874 17.8007 17.27 17.9385C17.5269 18.0279 17.2863 18.525 17.5554 18.5946C17.7791 18.6524 18.5247 18.26 18.7536 18.2888C19.3113 18.3589 19.908 18.3516 20.423 18.1187C20.7042 17.9915 21.1908 17.8865 21.3192 17.5315C21.3615 17.4144 21.5412 17.2835 21.5548 17.2013C21.599 16.9347 21.8633 16.7512 22.0095 16.5308C22.1369 16.3387 22.1891 16.0558 22.3348 15.8836C22.5598 15.6174 22.5395 15.2352 22.6932 14.9262C22.7968 14.718 22.8428 14.3207 22.8691 14.0822C22.8977 13.8235 22.9204 13.4517 22.8127 13.2148C22.6811 12.9254 22.5207 12.6759 22.3348 12.4142C22.1588 12.1665 21.911 11.8313 21.6776 11.6469C21.2851 11.337 20.9073 11.1152 20.4961 10.8396C20.1994 10.6409 19.8357 10.4307 19.6497 10.1191C19.4552 9.79325 19.7181 10.5342 19.736 10.6061C19.898 11.2575 19.9975 12.1118 20.4363 12.641C20.5793 12.8135 20.807 13.2641 21.0935 13.1681C21.4228 13.0578 21.4386 12.55 21.4386 12.2507C21.4386 11.7934 21.3788 11.4202 21.203 10.9931C21.0956 10.7321 20.9766 10.2989 20.735 10.1191C20.4642 9.91742 20.2145 9.5692 19.8854 9.47189C19.5975 9.38678 19.4046 9.33846 19.0822 9.33846C18.5893 9.33846 18.0302 9.26245 17.5554 9.38516C17.1009 9.50264 16.7233 9.75455 16.3905 10.089C16.0309 10.4505 15.6318 10.711 15.2853 11.0798C15.0101 11.3726 15.0164 11.9412 14.8073 12.2774C14.5816 12.6404 14.4332 13.0441 14.4489 13.4684C14.4555 13.6479 14.5288 13.9228 14.5816 14.0955C14.6732 14.3945 14.5709 14.7145 14.6613 15.0129C14.824 15.5504 15.1062 16.0206 15.4047 16.4707C15.9411 17.2794 16.4262 18.2254 17.4957 18.2254" stroke="#1B1B1B" stroke-width="3" stroke-linecap="round"/>
<path d="M30.1073 30.909C29.7119 25.8229 26.4828 21.6164 22.1176 20.0865C23.9464 18.8091 25.1606 16.602 25.1606 14.0831C25.1623 10.1275 22.1791 6.91891 18.5015 6.91891C14.8223 6.91891 11.839 10.1275 11.839 14.0831C11.839 16.602 13.0532 18.8091 14.8821 20.0883C10.5168 21.6164 7.2894 25.8229 6.89241 30.909C6.88743 31.0057 6.8758 31.0612 6.89241 31.1938C6.92563 31.6417 7.29272 32 7.70965 32C8.17474 32 8.54183 31.5897 8.54183 31.1042C8.97537 25.5685 13.2725 21.2528 18.5015 21.2528C23.7288 21.2528 28.026 25.5685 28.4595 31.1042C28.4595 31.5897 28.8266 32 29.2917 32C29.7086 32 30.0757 31.6417 30.1073 31.1938C30.1239 31.0612 30.1139 31.0039 30.1073 30.909ZM13.5051 14.0831C13.5051 11.1164 15.7425 8.71042 18.5015 8.71042C21.2605 8.71042 23.4963 11.1164 23.4963 14.0831C23.4963 17.0517 21.2605 19.4577 18.5015 19.4577C15.7425 19.4577 13.5051 17.0517 13.5051 14.0831Z" fill="white"/>
</g>
<defs>
<clipPath id="clip0_331_45">
<rect width="37" height="32" fill="white"/>
</clipPath>
</defs>
</svg>
