<svg width="31" height="30" viewBox="0 0 31 30" fill="none" xmlns="http://www.w3.org/2000/svg">
<path d="M15.3366 0.000499872C15.2023 0.00513244 15.0728 0.0519271 14.9666 0.13425L0.246615 11.6205C0.11268 11.7249 0.025716 11.8783 0.00485261 12.0468C-0.0160108 12.2154 0.0309359 12.3853 0.135365 12.5192C0.239794 12.6532 0.393151 12.7401 0.561699 12.761C0.730247 12.7819 0.90018 12.7349 1.03411 12.6305L1.92036 11.9392V28.7655C1.92038 28.9352 1.98782 29.098 2.10784 29.218C2.22785 29.3381 2.39063 29.4055 2.56036 29.4055H11.4129C11.482 29.4169 11.5525 29.4169 11.6216 29.4055H19.0929C19.162 29.4169 19.2325 29.4169 19.3016 29.4055H28.1604C28.3301 29.4055 28.4929 29.3381 28.6129 29.218C28.7329 29.098 28.8003 28.9352 28.8004 28.7655V11.9392L29.6866 12.6305C29.7529 12.6822 29.8288 12.7204 29.9098 12.7428C29.9909 12.7652 30.0756 12.7714 30.159 12.761C30.2425 12.7507 30.3231 12.724 30.3963 12.6826C30.4694 12.6411 30.5337 12.5856 30.5854 12.5193C30.6371 12.453 30.6753 12.3771 30.6976 12.296C30.72 12.215 30.7262 12.1303 30.7159 12.0468C30.7056 11.9634 30.6789 11.8828 30.6374 11.8096C30.5959 11.7365 30.5404 11.6722 30.4741 11.6205L25.6004 7.818V3.1655H21.7604V4.8205L15.7541 0.13425C15.635 0.0419108 15.4872 -0.00545251 15.3366 0.000499872ZM15.3604 1.45175L27.5204 10.9405V28.1255H19.8404V15.9655H10.8804V28.1255H3.20036V10.9405L15.3604 1.45175ZM23.0404 4.4455H24.3204V6.81925L23.0404 5.81925V4.4455ZM12.1604 17.2455H18.5604V28.1255H12.1604V17.2455Z" fill="white"/>
</svg>
