<svg width="30" height="32" viewBox="0 0 30 32" fill="none" xmlns="http://www.w3.org/2000/svg">
<path d="M29.9883 30.608C29.4778 24.1189 25.3081 18.752 19.6713 16.8C22.0328 15.1703 23.6007 12.3543 23.6007 9.14057C23.6029 4.09371 19.7507 0 15.0018 0C10.2509 0 6.39864 4.09371 6.39864 9.14057C6.39864 12.3543 7.96657 15.1703 10.3281 16.8023C4.6913 18.752 0.523761 24.1189 0.0111298 30.608C0.00469512 30.7314 -0.0103192 30.8023 0.0111298 30.9714C0.0540278 31.5429 0.528051 32 1.06642 32C1.66699 32 2.14102 31.4766 2.14102 30.8571C2.70084 23.7943 8.24969 18.288 15.0018 18.288C21.7518 18.288 27.3007 23.7943 27.8605 30.8571C27.8605 31.4766 28.3345 32 28.9351 32C29.4735 32 29.9475 31.5429 29.9883 30.9714C30.0097 30.8023 29.9968 30.7291 29.9883 30.608ZM8.54998 9.14057C8.54998 5.35543 11.4392 2.28571 15.0018 2.28571C18.5645 2.28571 21.4516 5.35543 21.4516 9.14057C21.4516 12.928 18.5645 15.9977 15.0018 15.9977C11.4392 15.9977 8.54998 12.928 8.54998 9.14057Z" fill="white"/>
</svg>
