<svg width="16" height="16" viewBox="0 0 16 16" fill="none" xmlns="http://www.w3.org/2000/svg">
<path d="M9.72681 10.6635L10.6696 9.72063L14.6766 13.7275L13.7338 14.6703L9.72681 10.6635Z" fill="black"/>
<path d="M6.66659 1.33337C5.2521 1.33337 3.89554 1.89528 2.89535 2.89547C1.89516 3.89567 1.33325 5.25222 1.33325 6.66671C1.33325 8.0812 1.89516 9.43775 2.89535 10.4379C3.89554 11.4381 5.2521 12 6.66659 12C8.08107 12 9.43763 11.4381 10.4378 10.4379C11.438 9.43775 11.9999 8.0812 11.9999 6.66671C11.9999 5.25222 11.438 3.89567 10.4378 2.89547C9.43763 1.89528 8.08107 1.33337 6.66659 1.33337Z" fill="black"/>
<path d="M10.8186 11.7803L11.7614 10.8374L14.6606 13.7365L13.7178 14.6794L10.8186 11.7803Z" fill="#37474F"/>
<path d="M6.66659 2.33337C5.51731 2.33337 4.41511 2.78992 3.60246 3.60258C2.7898 4.41524 2.33325 5.51744 2.33325 6.66671C2.33325 7.81598 2.7898 8.91818 3.60246 9.73084C4.41511 10.5435 5.51731 11 6.66659 11C7.81586 11 8.91806 10.5435 9.73071 9.73084C10.5434 8.91818 10.9999 7.81598 10.9999 6.66671C10.9999 5.51744 10.5434 4.41524 9.73071 3.60258C8.91806 2.78992 7.81586 2.33337 6.66659 2.33337Z" fill="#1DA1F2"/>
<path d="M8.96662 4.73329C8.39995 4.06663 7.56662 3.66663 6.66662 3.66663C5.76662 3.66663 4.93328 4.06663 4.36662 4.73329C4.23328 4.86663 4.26662 5.09996 4.39995 5.19996C4.53328 5.33329 4.76662 5.29996 4.86662 5.16663C5.33328 4.63329 5.96662 4.33329 6.66662 4.33329C7.36662 4.33329 7.99995 4.63329 8.46662 5.16663C8.53328 5.23329 8.63328 5.29996 8.73328 5.29996C8.79995 5.29996 8.89995 5.26663 8.93328 5.23329C9.06662 5.09996 9.06662 4.86663 8.96662 4.73329Z" fill="#BBDEFB"/>
</svg>
