<?xml version="1.0" standalone="no"?>
<!DOCTYPE svg PUBLIC "-//W3C//DTD SVG 20010904//EN"
 "http://www.w3.org/TR/2001/REC-SVG-20010904/DTD/svg10.dtd">
<svg version="1.0" xmlns="http://www.w3.org/2000/svg"
 width="1102.000000pt" height="313.000000pt" viewBox="0 0 1102.000000 313.000000"
 preserveAspectRatio="xMidYMid meet">

<g transform="translate(0.000000,313.000000) scale(0.100000,-0.100000)"
fill="#fff" stroke="none">
<path d="M2854 2825 c-81 -17 -188 -73 -264 -136 -60 -50 -144 -152 -161 -196
-5 -13 -18 -42 -29 -65 -45 -90 -61 -261 -40 -397 15 -87 68 -216 120 -287
197 -271 542 -351 793 -183 39 26 75 45 79 43 4 -3 8 -29 8 -59 0 -39 4 -54
16 -59 20 -8 168 -8 188 0 14 5 16 46 16 350 l0 344 -245 0 -245 0 0 -100 0
-99 133 -3 132 -3 3 -36 c4 -47 -29 -87 -125 -149 -106 -70 -221 -86 -345 -50
-87 25 -196 140 -233 245 -9 28 -19 93 -22 145 -9 159 30 273 128 371 73 73
130 94 249 93 72 0 94 -5 144 -29 67 -32 126 -81 157 -131 11 -19 25 -34 31
-34 5 0 52 32 103 70 70 53 92 75 88 89 -7 26 -80 113 -132 156 -62 51 -151
94 -230 111 -82 17 -236 17 -317 -1z"/>
<path d="M4653 2821 c-153 -38 -322 -173 -405 -324 -53 -98 -91 -256 -85 -355
7 -116 31 -207 83 -311 106 -214 306 -346 544 -358 100 -5 231 35 313 95 31
23 59 42 62 42 3 0 5 -27 5 -59 0 -44 4 -60 16 -65 23 -9 187 -7 202 2 9 7 12
84 10 351 l-3 342 -240 0 c-132 0 -244 -1 -248 -1 -4 0 -6 -44 -5 -97 l3 -98
133 -3 132 -3 0 -43 c0 -41 -4 -48 -62 -100 -72 -65 -122 -92 -204 -107 -184
-35 -346 55 -424 237 -33 75 -34 85 -35 194 0 109 2 119 35 195 39 93 121 183
194 216 142 62 339 13 431 -108 19 -24 36 -50 38 -56 5 -15 27 -3 131 73 44
31 76 61 76 71 0 20 -61 98 -116 150 -60 55 -168 109 -252 125 -98 19 -240 17
-329 -5z"/>
<path d="M7290 2826 c-134 -28 -304 -149 -390 -276 -20 -30 -54 -98 -75 -149
-33 -83 -38 -108 -43 -203 -6 -127 6 -199 52 -307 80 -189 238 -337 411 -386
33 -9 74 -21 91 -26 98 -29 311 12 423 83 94 59 144 101 189 162 92 122 152
291 152 431 0 79 -28 209 -59 272 -12 23 -21 46 -21 52 0 18 -117 167 -161
204 -61 53 -147 104 -216 128 -75 27 -259 35 -353 15z m271 -247 c98 -34 191
-136 229 -252 46 -136 28 -320 -42 -429 -69 -110 -159 -166 -280 -175 -228
-17 -392 148 -406 408 -4 81 -1 109 18 170 48 159 140 254 277 289 45 11 156
5 204 -11z"/>
<path d="M8714 2826 c-213 -49 -398 -226 -481 -461 -38 -105 -43 -252 -13
-365 85 -323 331 -524 640 -524 180 0 334 65 462 196 170 174 235 425 174 663
-56 214 -242 417 -442 481 -69 22 -263 27 -340 10z m265 -247 c89 -27 191
-133 233 -244 19 -50 23 -79 23 -180 0 -114 -2 -124 -33 -197 -42 -97 -106
-167 -187 -205 -53 -24 -71 -28 -155 -27 -81 0 -103 4 -150 26 -211 99 -294
403 -175 639 86 168 262 243 444 188z"/>
<path d="M230 2155 l0 -675 344 0 c391 0 457 8 563 66 166 92 225 271 145 446
-31 69 -75 116 -146 157 l-45 27 51 44 c185 159 142 485 -77 586 -50 24 -52
24 -442 24 l-393 0 0 -675z m693 422 c39 -25 60 -74 60 -137 0 -65 -20 -110
-65 -142 -31 -22 -43 -23 -225 -26 l-193 -4 0 167 0 167 198 -4 c168 -3 202
-6 225 -21z m44 -548 c81 -50 96 -181 29 -258 -40 -46 -71 -51 -291 -51 l-205
0 0 165 0 165 216 0 c203 0 219 -1 251 -21z"/>
<path d="M1900 2391 c0 -457 -4 -515 -43 -591 -36 -69 -72 -85 -192 -84 -84 0
-110 5 -163 27 l-63 26 -9 -25 c-11 -28 -50 -178 -50 -191 0 -13 46 -37 120
-64 56 -21 82 -24 190 -23 148 0 232 23 308 83 83 66 121 127 154 249 19 72
21 108 25 555 l5 477 -141 0 -141 0 0 -439z"/>
<path d="M5610 2162 c0 -602 2 -670 16 -676 20 -8 218 -8 238 0 14 5 16 35 16
225 l0 219 124 0 124 0 47 -77 c26 -43 77 -127 114 -186 36 -60 75 -124 86
-142 11 -19 29 -36 40 -39 32 -9 259 -7 273 2 9 6 -19 61 -110 210 -165 271
-168 275 -168 288 0 6 13 17 30 24 37 15 122 104 148 156 94 184 57 399 -94
544 -35 34 -88 73 -121 88 l-58 27 -352 3 -353 3 0 -669z m668 400 c96 -69
108 -252 23 -342 -45 -47 -73 -52 -271 -48 l-145 3 -3 208 -2 208 182 -3 c173
-3 185 -4 216 -26z"/>
<path d="M9592 2713 l3 -118 213 -3 212 -2 0 -549 c0 -491 2 -549 16 -555 20
-8 218 -8 238 0 14 6 16 64 16 555 l0 549 213 2 212 3 3 118 3 117 -566 0
-566 0 3 -117z"/>
<path d="M520 1213 c-184 -31 -283 -159 -249 -323 21 -102 83 -140 320 -200
67 -17 138 -39 158 -50 75 -38 109 -102 91 -171 -41 -152 -339 -161 -523 -16
-21 16 -39 28 -41 26 -1 -2 -13 -22 -26 -43 l-24 -39 30 -23 c93 -75 216 -114
359 -114 142 0 224 28 288 99 44 49 61 107 54 185 -11 123 -90 181 -328 240
-211 53 -253 83 -252 177 2 106 79 164 218 163 98 0 148 -14 216 -60 l52 -36
18 23 c44 57 37 69 -66 119 -88 43 -198 59 -295 43z"/>
<path d="M1855 1206 c-198 -48 -345 -246 -345 -466 0 -196 102 -364 270 -444
60 -29 73 -31 175 -31 105 0 114 2 180 34 123 60 223 187 254 321 15 66 13
177 -4 245 -65 249 -296 398 -530 341z m234 -115 c86 -45 152 -126 186 -230
26 -78 17 -216 -18 -294 -34 -75 -114 -159 -180 -188 -75 -34 -183 -33 -252 3
-68 35 -130 100 -168 177 -58 119 -48 289 25 403 93 146 265 201 407 129z"/>
<path d="M3030 740 l0 -470 55 0 55 0 0 215 0 215 220 0 220 0 0 40 0 40 -220
0 -220 0 0 170 0 170 260 0 260 0 0 45 0 45 -315 0 -315 0 0 -470z"/>
<path d="M4170 1165 l0 -45 170 0 170 0 0 -425 0 -425 55 0 55 0 0 425 0 425
165 0 165 0 0 45 0 45 -390 0 -390 0 0 -45z"/>
<path d="M5444 1193 c4 -10 93 -222 198 -471 l191 -453 51 3 50 3 90 212 c50
117 93 213 96 213 3 0 46 -96 96 -212 l89 -213 52 -3 51 -3 75 178 c42 98 130
306 196 463 67 156 121 288 121 293 0 4 -26 7 -57 5 l-57 -3 -155 -380 c-86
-210 -160 -391 -166 -403 -9 -19 -22 6 -94 179 l-84 200 66 162 c36 89 73 179
81 200 l16 37 -54 0 -54 0 -57 -142 c-31 -79 -60 -146 -63 -150 -4 -4 -34 60
-66 142 l-59 150 -53 0 -53 0 80 -195 c43 -107 79 -199 79 -205 0 -16 -164
-402 -168 -393 -1 4 -76 186 -165 403 l-162 395 -59 3 c-53 3 -58 1 -52 -15z"/>
<path d="M7511 818 c-90 -216 -179 -428 -197 -471 l-34 -78 61 3 60 3 58 140
57 140 204 3 205 2 59 -145 58 -145 58 0 59 0 -59 143 c-32 78 -120 288 -194
467 l-135 325 -48 3 -48 3 -164 -393z m307 20 l81 -198 -179 0 -179 0 73 178
c112 272 107 260 116 237 4 -11 44 -109 88 -217z"/>
<path d="M8740 740 l0 -470 55 0 55 0 0 170 0 170 133 0 132 0 106 -168 106
-167 62 -3 c33 -2 61 -1 61 2 0 2 -49 82 -110 177 l-109 173 49 24 c166 79
202 336 67 474 -77 80 -89 83 -364 86 l-243 3 0 -471z m497 344 c103 -82 112
-247 17 -336 -46 -42 -75 -48 -245 -48 l-159 0 0 211 0 210 174 -3 174 -3 39
-31z"/>
<path d="M10070 740 l0 -470 320 0 320 0 0 45 0 45 -265 0 -265 0 0 175 0 175
230 0 230 0 0 40 0 40 -230 0 -230 0 0 165 0 165 260 0 260 0 0 45 0 45 -315
0 -315 0 0 -470z"/>
</g>
</svg>
